<svg width="779" height="653" viewBox="0 0 779 653" fill="none" xmlns="http://www.w3.org/2000/svg">
<g id="logout1 1" clip-path="url(#clip0)">
<g id="everthingelse">
<path id="Vector" d="M166.586 165.43V154.91H125.094V165.43H116.796V17.3381H28.0043V265.776H101.029H116.796H189.821V165.43H166.586Z" fill="#E6E6E6"/>
<path id="Vector_2" d="M474.362 138.384C474.362 138.384 474.306 138.437 474.209 138.53L474.209 138.384L474.205 138.533C472.106 140.523 448.736 163.012 439.669 185.821C436.659 182.556 434.531 180.563 434.531 180.563C434.531 180.563 434.494 180.598 434.43 180.659L434.43 180.563L434.428 180.661C432.717 182.283 409.453 204.671 409.453 222.412C409.453 239.541 419.164 246.301 431.664 247.164L430.757 264.059H433.29L433.57 247.25C433.889 247.257 434.209 247.261 434.531 247.261C443.767 247.261 451.832 244.395 456.183 237.027C460.595 238.725 465.255 239.727 469.989 239.998L468.605 265.776H472.47L472.897 240.129C473.384 240.14 473.872 240.147 474.362 240.147C495.494 240.147 512.625 230.335 512.625 202.234C512.625 174.133 474.362 138.384 474.362 138.384Z" fill="#ACABAB"/>
<g id="Vector_3" filter="url(#filter0_d)">
<path d="M383.171 155.938V141.152H336.701V155.938H315.125V97.453H294.379V74.7941H247.909V97.453H226.333V189.267C223.205 185.449 219.85 181.813 216.285 178.378C216.285 178.378 216.248 178.412 216.185 178.473L216.185 178.378L216.182 178.475C214.472 180.097 191.208 202.485 191.208 220.226C191.208 237.355 200.919 244.115 213.419 244.978L212.512 261.873H215.045L215.325 245.064C215.644 245.071 215.964 245.075 216.285 245.075C219.688 245.117 223.076 244.65 226.333 243.691V265.776H403.917V155.938H383.171Z" fill="#ACABAB"/>
</g>
<g id="Vector_4" filter="url(#filter1_d)">
<path d="M694.92 141.208C694.92 141.208 694.864 141.261 694.766 141.353L694.767 141.208L694.763 141.356C692.59 143.417 667.629 167.436 659.327 191.043V179.341L579.664 62L500 179.341V267.548H659.327V221.942C664.419 235.825 676.293 241.838 690.547 242.821L689.163 268.599H693.028L693.455 242.953C693.941 242.963 694.429 242.97 694.92 242.97C716.052 242.97 733.182 233.159 733.182 205.058C733.182 176.957 694.92 141.208 694.92 141.208Z" fill="#ACABAB"/>
</g>
<g id="Vector_5" filter="url(#filter2_d)">
<path d="M126.754 297.596C184.729 297.596 231.727 293.372 231.727 288.16C231.727 282.949 184.729 278.724 126.754 278.724C68.7784 278.724 21.7802 282.949 21.7802 288.16C21.7802 293.372 68.7784 297.596 126.754 297.596Z" fill="#ACABAB"/>
</g>
<path id="Vector_6" d="M245.834 183.155C245.834 229.626 217.505 245.852 182.56 245.852C147.615 245.852 119.286 229.626 119.286 183.155C119.286 136.684 182.56 77.5658 182.56 77.5658C182.56 77.5658 245.834 136.684 245.834 183.155Z" fill="#058145"/>
<path id="Vector_7" d="M180.255 238.743L180.903 199.851L207.872 151.736L181.004 193.75L181.295 176.263L199.883 141.452L181.373 171.634V171.635L181.897 140.183L201.801 112.47L181.979 135.237L182.307 77.5654L180.249 153.913L180.418 150.763L160.182 120.557L180.094 156.809L178.208 191.935L178.152 191.003L154.824 159.216L178.082 194.297L177.846 198.689L177.804 198.756L177.823 199.116L173.039 288.235H179.431L180.198 242.203L203.398 207.208L180.255 238.743Z" fill="#3F3D56"/>
<path id="Vector_8" d="M134.872 183.155C134.872 229.626 106.543 245.852 71.5975 245.852C36.652 245.852 8.32312 229.626 8.32312 183.155C8.32312 136.684 71.5975 77.5658 71.5975 77.5658C71.5975 77.5658 134.872 136.684 134.872 183.155Z" fill="#058145"/>
<path id="Vector_9" d="M69.2925 238.743L69.9406 199.851L96.9092 151.736L70.0418 193.75L70.3331 176.263L88.9204 141.452L70.4102 171.634V171.635L70.9347 140.183L90.8373 112.47L71.0168 135.237L71.3438 77.5654L69.2867 153.913L69.4559 150.763L49.2197 120.557L69.1315 156.809L67.2461 191.935L67.1897 191.003L43.8615 159.216L67.1191 194.297L66.8835 198.689L66.8411 198.756L66.8602 199.116L62.0771 288.235H68.4684L69.2352 242.203L92.4356 207.208L69.2925 238.743Z" fill="#3F3D56"/>
<path id="Vector_10" d="M220.11 142.782C220.11 205.622 181.802 227.563 134.547 227.563C87.2924 227.563 48.9848 205.622 48.9848 142.782C48.9848 79.9423 134.547 0 134.547 0C134.547 0 220.11 79.9423 220.11 142.782Z" fill="#F2F2F2"/>
<g id="Vector_11" filter="url(#filter3_d)">
<path d="M108.5 537C160.139 537 202 532.747 202 527.5C202 522.253 160.139 518 108.5 518C56.8614 518 15 522.253 15 527.5C15 532.747 56.8614 537 108.5 537Z" fill="#ACABAB"/>
</g>
<path id="Vector_12" d="M131.43 217.951L132.306 165.36L168.775 100.296L132.444 157.109L132.838 133.462L157.972 86.3902L132.942 127.204L133.651 84.6738L160.565 47.1984L133.762 77.9862L134.204 0L131.423 103.239L131.651 98.9804L104.287 58.1346L131.213 107.156L128.663 154.656L128.587 153.395L97.0411 110.41L128.492 157.849L128.172 163.789L128.115 163.878L128.142 164.366L121.673 284.875H130.316L131.352 222.63L162.725 175.308L131.43 217.951Z" fill="#3F3D56"/>
<g id="Vector_13" filter="url(#filter4_d)">
<path d="M453.707 653C565.074 653 655.355 647.837 655.355 641.468C655.355 635.099 565.074 629.937 453.707 629.937C342.339 629.937 252.058 635.099 252.058 641.468C252.058 647.837 342.339 653 453.707 653Z" fill="#ACABAB"/>
</g>
<path id="Vector_14" d="M366.27 158.478L327.462 180.327L382.646 273.537L421.453 251.688L366.27 158.478Z" fill="#3F3D56"/>
<path id="Vector_15" d="M373.122 181.04L342.24 199.082L342.666 199.776L373.548 181.734L373.122 181.04Z" fill="#F9A826"/>
<path id="Vector_16" d="M378.035 187.73L347.153 205.772L347.58 206.466L378.462 188.424L378.035 187.73Z" fill="#F9A826"/>
<path id="Vector_17" d="M381.355 193.395L350.473 211.437L350.899 212.131L381.781 194.089L381.355 193.395Z" fill="#F9A826"/>
<path id="Vector_18" d="M386.334 200.678L355.452 218.72L355.878 219.414L386.76 201.372L386.334 200.678Z" fill="#F9A826"/>
<path id="Vector_19" d="M393.802 211.198L362.92 229.241L363.346 229.934L394.228 211.892L393.802 211.198Z" fill="#F9A826"/>
<path id="Vector_20" d="M507.021 276.573C507.021 276.573 528.381 266.554 543.582 270.288L507.021 174.13V164.256L558.77 284.331C571.709 308.115 588.067 362.322 560.178 366.673C528.536 371.61 471.582 390.124 471.582 390.124L458.926 282.744L507.021 276.573Z" fill="#2F2E41"/>
<path id="Vector_21" d="M382.354 244.482C382.354 244.482 348.182 202.518 339.322 217.329C330.463 232.14 379.111 257.053 379.111 257.053L382.354 244.482Z" fill="#FFB9B9"/>
<path id="Vector_22" d="M393.745 245.717L379.823 238.311C379.823 238.311 370.964 260.528 370.964 264.23C370.964 267.933 384.886 269.167 384.886 269.167L393.745 245.717Z" fill="#D0CDE1"/>
<path id="Vector_23" d="M446.902 151.914C465.076 151.914 479.809 137.546 479.809 119.823C479.809 102.1 465.076 87.7325 446.902 87.7325C428.728 87.7325 413.996 102.1 413.996 119.823C413.996 137.546 428.728 151.914 446.902 151.914Z" fill="#FFB9B9"/>
<path id="Vector_24" d="M472.215 116.12C472.215 116.12 486.137 156.851 496.263 159.319C506.388 161.788 457.028 180.301 457.028 180.301C457.028 180.301 441.84 145.742 434.246 137.103C426.652 128.463 472.215 116.12 472.215 116.12Z" fill="#FFB9B9"/>
<path id="Vector_25" opacity="0.1" d="M551.318 354.331C578.599 350.074 563.542 298.11 550.761 273.584C551.919 274.445 552.958 275.45 553.849 276.573C566.506 292.618 591.819 361.736 560.178 366.673C528.536 371.61 471.582 390.124 471.582 390.124L469.861 375.515C486.135 370.42 526.507 358.202 551.318 354.331Z" fill="black"/>
<path id="Vector_26" d="M449.434 175.364C449.434 175.364 482.34 143.274 491.2 145.742C500.059 148.211 500.06 160.553 500.06 160.553C500.06 160.553 527.904 164.256 525.372 253.122C522.841 341.988 548.154 351.862 539.295 356.799C530.435 361.736 429.183 383.953 425.386 361.736C421.589 339.52 422.855 254.356 432.98 227.203C443.105 200.049 455.762 182.77 449.434 175.364Z" fill="#575A89"/>
<path id="Vector_27" d="M491.2 182.77C491.2 182.77 529.169 200.049 507.653 233.374C486.137 266.699 469.684 302.492 446.902 301.258C424.121 300.024 388.683 279.041 378.557 279.041C368.432 279.041 382.354 243.248 389.948 242.014C397.542 240.78 432.98 261.762 432.98 261.762C432.98 261.762 445.637 177.833 491.2 182.77Z" fill="#575A89"/>
<path id="Vector_28" d="M465.886 123.369C463.079 123.206 460.338 124.131 457.55 124.492C447.577 125.783 437.201 118.725 434.999 109.152C434.822 107.877 434.433 106.639 433.846 105.487C432.311 103.043 428.815 102.577 425.933 103.139C423.051 103.701 420.319 105.016 417.385 105.166C412.853 105.398 408.503 102.678 406.088 98.9314C403.673 95.1851 402.989 90.5752 403.315 86.1616L405.488 88.385C406.37 86.5638 406.711 84.5377 406.471 82.537C407.622 82.238 408.833 82.2322 409.987 82.5202C411.141 82.8082 412.2 83.3803 413.063 84.1817C414.978 84.3805 413.532 80.717 414.955 79.4509C415.551 78.9207 416.465 79.0207 417.271 79.0283C421.346 79.0666 424.643 76.0272 427.854 73.5803C433.418 69.3503 439.924 66.4562 446.847 65.1318C451.448 64.2566 456.341 64.116 460.705 65.7869C464.289 67.1592 467.289 69.6585 470.064 72.2609C476.896 78.6673 482.945 86.1946 485.788 95.0121C488.098 102.234 488.164 109.962 485.976 117.221C484.831 120.99 481.379 133.9 476.326 134.201C469.977 134.578 473.789 123.829 465.886 123.369Z" fill="#2F2E41"/>
</g>
<g id="page2">
<path id="Vector_29" d="M375.58 473.217L318.742 479.082C308.182 461.575 306.255 443.089 312.727 423.654L369.566 417.788C355.092 437.764 357.446 456.208 375.58 473.217Z" fill="#F2F2F2"/>
<path id="Vector_30" d="M355.687 428.688L318.02 431.67L318.087 432.476L355.755 429.494L355.687 428.688Z" fill="#3F3D56"/>
<path id="Vector_31" d="M355.012 434.395L317.934 438.323L318.024 439.127L355.102 435.198L355.012 434.395Z" fill="#3F3D56"/>
</g>
<g id="page3">
<path id="Vector_32" d="M354.636 608.371L312.093 645.593C293.018 637.436 280.353 623.555 273.924 604.106L316.467 566.883C316.735 591.341 329.722 604.945 354.636 608.371Z" fill="#6A6A6A"/>
<path id="Vector_33" d="M311.766 583.645L283.029 607.579L283.567 608.194L312.304 584.26L311.766 583.645Z" fill="#3F3D56"/>
<path id="Vector_34" d="M314.647 588.656L286.956 613.021L287.511 613.621L315.202 589.256L314.647 588.656Z" fill="#3F3D56"/>
</g>
<g id="page1">
<path id="Vector_35" d="M323.599 355.733L285.602 314.096C294.044 295.527 308.329 283.232 328.299 277.041L366.296 318.679C341.215 318.841 327.213 331.451 323.599 355.733Z" fill="#6A6A6A"/>
<path id="Vector_36" d="M324.701 285.906L324.068 286.428L348.495 314.549L349.127 314.026L324.701 285.906Z" fill="#3F3D56"/>
<path id="Vector_37" d="M319.105 289.714L318.487 290.253L343.36 317.355L343.977 316.816L319.105 289.714Z" fill="#3F3D56"/>
</g>
<g id="ball">
<path id="Vector_38" d="M127.095 510.71C127.1 513.416 126.683 516.102 125.861 518.652C124.662 522.342 122.658 525.65 120.024 528.287C117.255 531.045 113.879 532.962 110.231 533.847C108.695 534.229 107.125 534.421 105.55 534.419C101.624 534.41 97.7731 533.233 94.4051 531.013C91.2886 528.93 88.6987 526.017 86.8741 522.543C85.2255 519.392 84.2574 515.866 84.0447 512.238C83.832 508.61 84.3804 504.976 85.6474 501.618C86.9144 498.26 88.8662 495.268 91.3518 492.873C93.8375 490.478 96.7903 488.744 99.9822 487.805C103.174 486.865 106.52 486.747 109.76 487.457C113 488.168 116.048 489.689 118.669 491.904C121.29 494.118 123.413 496.965 124.874 500.226C126.335 503.487 127.095 507.074 127.095 510.71V510.71Z" fill="#3F3D56"/>
<path id="Vector_39" d="M89.3122 495.127L91.2413 494.857L94.9139 500.17L92.5738 506.325L86.561 507.164L84.7496 504.536L89.3122 495.127Z" fill="#F2F2F2"/>
<path id="Vector_40" d="M101.386 520.333L95.3696 521.175L91.6987 515.863L94.0454 509.708L100.06 508.867L103.731 514.178L101.386 520.333Z" fill="#F2F2F2"/>
<path id="Vector_41" d="M95.8937 527.112L94.4052 531.013C91.2886 528.93 88.6987 526.017 86.8742 522.543L92.2213 521.799L95.8937 527.112Z" fill="#F2F2F2"/>
<path id="Vector_42" d="M108.24 502.012L102.226 502.854L98.555 497.542L100.9 491.388L106.916 490.546L110.585 495.858L108.24 502.012Z" fill="#F2F2F2"/>
<path id="Vector_43" d="M117.056 516.022L111.04 516.864L107.369 511.552L109.714 505.398L115.73 504.556L119.401 509.868L117.056 516.022Z" fill="#F2F2F2"/>
<path id="Vector_44" d="M111.563 530.345L110.231 533.847C108.695 534.229 107.125 534.421 105.55 534.418C103.945 534.419 102.345 534.22 100.781 533.826L99.5368 532.026L101.877 525.873L107.89 525.032L111.563 530.345Z" fill="#F2F2F2"/>
<path id="Vector_45" d="M124.715 499.879L118.878 500.698L115.206 495.386L117.018 490.633C120.291 492.9 122.949 496.093 124.715 499.879V499.879Z" fill="#F2F2F2"/>
<path id="Vector_46" d="M125.861 518.652C124.662 522.342 122.658 525.65 120.024 528.287L118.144 525.56L120.484 519.407L125.861 518.652Z" fill="#F2F2F2"/>
</g>
<g id="left">
<path id="Vector_47" d="M520.31 353.096C520.31 353.096 510.185 395.061 482.34 423.449C454.496 451.836 441.84 509.846 441.84 509.846L413.995 625.866C413.995 625.866 364.635 619.695 367.167 607.352L393.745 504.909C393.745 504.909 424.121 362.97 440.574 353.096C457.027 343.222 520.31 353.096 520.31 353.096Z" fill="#2F2E41"/>
<path id="Vector_48" d="M411.464 615.992C411.464 615.992 419.058 639.443 413.996 641.911C408.933 644.38 319.072 649.317 314.01 632.037C314.01 632.037 311.478 623.397 331.729 623.397C351.979 623.397 373.495 604.884 373.495 604.884L411.464 615.992Z" fill="#2F2E41"/>
</g>
<g id="right">
<path id="Vector_49" d="M500.059 382.718L520.31 475.287C520.31 475.287 603.842 566.622 601.311 567.856C598.78 569.09 573.467 593.775 568.404 593.775C563.342 593.775 476.012 497.504 476.012 497.504L444.371 417.277L500.059 382.718Z" fill="#2F2E41"/>
<path id="Vector_50" d="M594.983 566.622C594.983 566.622 626.624 591.307 624.093 593.775C621.561 596.244 594.983 635.74 572.201 639.443C549.42 643.145 539.294 643.145 539.294 639.443C539.294 635.74 545.623 627.1 557.014 623.397C568.404 619.695 569.67 595.01 568.404 590.073C567.139 585.136 594.983 566.622 594.983 566.622Z" fill="#2F2E41"/>
</g>
</g>
<defs>
<filter id="filter0_d" x="187.208" y="74.7941" width="220.709" height="198.982" filterUnits="userSpaceOnUse" color-interpolation-filters="sRGB">
<feFlood flood-opacity="0" result="BackgroundImageFix"/>
<feColorMatrix in="SourceAlpha" type="matrix" values="0 0 0 0 0 0 0 0 0 0 0 0 0 0 0 0 0 0 127 0"/>
<feOffset dy="4"/>
<feGaussianBlur stdDeviation="2"/>
<feColorMatrix type="matrix" values="0 0 0 0 0 0 0 0 0 0 0 0 0 0 0 0 0 0 0.25 0"/>
<feBlend mode="normal" in2="BackgroundImageFix" result="effect1_dropShadow"/>
<feBlend mode="normal" in="SourceGraphic" in2="effect1_dropShadow" result="shape"/>
</filter>
<filter id="filter1_d" x="496" y="62" width="241.182" height="214.599" filterUnits="userSpaceOnUse" color-interpolation-filters="sRGB">
<feFlood flood-opacity="0" result="BackgroundImageFix"/>
<feColorMatrix in="SourceAlpha" type="matrix" values="0 0 0 0 0 0 0 0 0 0 0 0 0 0 0 0 0 0 127 0"/>
<feOffset dy="4"/>
<feGaussianBlur stdDeviation="2"/>
<feColorMatrix type="matrix" values="0 0 0 0 0 0 0 0 0 0 0 0 0 0 0 0 0 0 0.25 0"/>
<feBlend mode="normal" in2="BackgroundImageFix" result="effect1_dropShadow"/>
<feBlend mode="normal" in="SourceGraphic" in2="effect1_dropShadow" result="shape"/>
</filter>
<filter id="filter2_d" x="17.7802" y="278.724" width="217.947" height="26.8724" filterUnits="userSpaceOnUse" color-interpolation-filters="sRGB">
<feFlood flood-opacity="0" result="BackgroundImageFix"/>
<feColorMatrix in="SourceAlpha" type="matrix" values="0 0 0 0 0 0 0 0 0 0 0 0 0 0 0 0 0 0 127 0"/>
<feOffset dy="4"/>
<feGaussianBlur stdDeviation="2"/>
<feColorMatrix type="matrix" values="0 0 0 0 0 0 0 0 0 0 0 0 0 0 0 0 0 0 0.25 0"/>
<feBlend mode="normal" in2="BackgroundImageFix" result="effect1_dropShadow"/>
<feBlend mode="normal" in="SourceGraphic" in2="effect1_dropShadow" result="shape"/>
</filter>
<filter id="filter3_d" x="11" y="518" width="195" height="27" filterUnits="userSpaceOnUse" color-interpolation-filters="sRGB">
<feFlood flood-opacity="0" result="BackgroundImageFix"/>
<feColorMatrix in="SourceAlpha" type="matrix" values="0 0 0 0 0 0 0 0 0 0 0 0 0 0 0 0 0 0 127 0"/>
<feOffset dy="4"/>
<feGaussianBlur stdDeviation="2"/>
<feColorMatrix type="matrix" values="0 0 0 0 0 0 0 0 0 0 0 0 0 0 0 0 0 0 0.25 0"/>
<feBlend mode="normal" in2="BackgroundImageFix" result="effect1_dropShadow"/>
<feBlend mode="normal" in="SourceGraphic" in2="effect1_dropShadow" result="shape"/>
</filter>
<filter id="filter4_d" x="248.058" y="629.937" width="411.297" height="31.0635" filterUnits="userSpaceOnUse" color-interpolation-filters="sRGB">
<feFlood flood-opacity="0" result="BackgroundImageFix"/>
<feColorMatrix in="SourceAlpha" type="matrix" values="0 0 0 0 0 0 0 0 0 0 0 0 0 0 0 0 0 0 127 0"/>
<feOffset dy="4"/>
<feGaussianBlur stdDeviation="2"/>
<feColorMatrix type="matrix" values="0 0 0 0 0 0 0 0 0 0 0 0 0 0 0 0 0 0 0.25 0"/>
<feBlend mode="normal" in2="BackgroundImageFix" result="effect1_dropShadow"/>
<feBlend mode="normal" in="SourceGraphic" in2="effect1_dropShadow" result="shape"/>
</filter>
<clipPath id="clip0">
<rect width="779" height="653" fill="white"/>
</clipPath>
</defs>
</svg>
